{"title":"Jack the Giant Slayer 2013 BRRip XviD-THC","uid":8526658,"size":1723717703,"categoryP":"video","categoryS":"movies","magnet":"?xt=urn:btih:93981f9bedd9ca481c4589174cd62c511fc93979&amp;dn=Jack+the+Giant+Slayer+2013+BRRip+XviD-THC&amp;tr=udp%3A%2F%2Ftracker.openbittorrent.com%3A80&amp;tr=udp%3A%2F%2Fopen.demonii.com%3A1337&amp;tr=udp%3A%2F%2Ftracker.coppersurfer.tk%3A6969&amp;tr=udp%3A%2F%2Fexodus.desync.com%3A6969","seeders":1,"leechers":0,"uploader":"R0thschild","files":4,"time":1370043290,"description":"              ***********************************************\n\n                PublicHash - Largest Bittorrent Community\n      \n                         &lt;a href=&quot; http://publichash.com/&quot; rel=&quot;nofollow&quot; target=&quot;_NEW&quot;&gt; http://publichash.com/&lt;/a&gt;\n    \n              *********************************************** &lt;a href=&quot;\nhttp://www.imdb.com/title/tt1351685/?ref_=sr_1&quot; rel=&quot;nofollow&quot; target=&quot;_NEW&quot;&gt;\nhttp://www.imdb.com/title/tt1351685/?ref_=sr_1&lt;/a&gt;\nFormat: AVI\nFormat/Info: Audio Video Interleave\nFile size: 1.59 GiB\nDuration: 1h 54mn\nOverall bit rate: 1 988 Kbps\nWriting library: VirtualDub build 35390/release\n\nVideo\nID: 0\nFormat: MPEG-4 Visual\nFormat profile: Advanced Simple@L5\nFormat settings, BVOP: Yes\nFormat settings, QPel: No\nFormat settings, GMC: No warppoints\nFormat settings, Matrix: Default (H.263)\nMuxing mode: Packed bitstream\nCodec ID: XVID\nCodec ID/Hint: XviD\nDuration: 1h 54mn\nBit rate: 1 786 Kbps\nWidth: 720 pixels\nHeight: 304 pixels\nDisplay aspect ratio: 2.35:1\nFrame rate: 23.976 fps\nColor space: YUV\nChroma subsampling: 4:2:0\nBit depth: 8 bits\nScan type: Progressive\nBits/(Pixel*Frame): 0.340\nStream size: 1.43 GiB (90%)\nWriting library: XviD 1.2.1 (UTC 2008-12-04)\n\nAudio\nID: 1\nFormat: MPEG Audio\nFormat version: Version 1\nFormat profile: Layer 3\nMode: Joint stereo\nMode extension: MS Stereo\nCodec ID: 55\nCodec ID/Hint: MP3\nDuration: 1h 54mn\nBit rate mode: Constant\nBit rate: 192 Kbps\nChannel(s): 2 channels\nSampling rate: 48.0 KHz\nStream size: 157 MiB (10%)\nAlignment: Split accross interleaves\nInterleave, duration: 42 ms (1.00 video frame)\nInterleave, preload duration: 500 ms\n\nGallery &lt;a href=&quot;\nhttp://imgsure.com/?g=844105&quot; rel=&quot;nofollow&quot; target=&quot;_NEW&quot;&gt;\nhttp://imgsure.com/?g=844105&lt;/a&gt;","torrent":{"xt":"urn:btih:93981f9bedd9ca481c4589174cd62c511fc93979","amp;dn":"Jack+the+Giant+Slayer+2013+BRRip+XviD-THC","amp;tr":["udp%3A%2F%2Ftracker.openbittorrent.com%3A80","udp%3A%2F%2Fopen.demonii.com%3A1337","udp%3A%2F%2Ftracker.coppersurfer.tk%3A6969","udp%3A%2F%2Fexodus.desync.com%3A6969"],"infoHash":"93981f9bedd9ca481c4589174cd62c511fc93979","infoHashBuffer":{"type":"Buffer","data":[147,152,31,155,237,217,202,72,28,69,137,23,76,214,44,81,31,201,57,121]},"announce":[],"urlList":[]}}